<svg width="24" height="23" viewBox="0 0 24 23" fill="none" xmlns="http://www.w3.org/2000/svg">
<g filter="url(#filter0_d_1620_281)">
<path d="M14 17C14.2653 17 14.5196 16.8946 14.7071 16.7071C14.8947 16.5196 15 16.2652 15 16V14C15 13.7348 14.8947 13.4804 14.7071 13.2929C14.5196 13.1054 14.2653 13 14 13C13.7348 13 13.4805 13.1054 13.2929 13.2929C13.1054 13.4804 13 13.7348 13 14V16C13 16.2652 13.1054 16.5196 13.2929 16.7071C13.4805 16.8946 13.7348 17 14 17ZM10 17C10.2653 17 10.5196 16.8946 10.7071 16.7071C10.8947 16.5196 11 16.2652 11 16V14C11 13.7348 10.8947 13.4804 10.7071 13.2929C10.5196 13.1054 10.2653 13 10 13C9.73482 13 9.48047 13.1054 9.29293 13.2929C9.10539 13.4804 9.00004 13.7348 9.00004 14V16C9.00004 16.2652 9.10539 16.5196 9.29293 16.7071C9.48047 16.8946 9.73482 17 10 17ZM19 5H17.62L15.89 1.55C15.8372 1.42305 15.7587 1.30837 15.6595 1.21312C15.5603 1.11788 15.4426 1.04411 15.3136 0.996439C15.1846 0.948764 15.0472 0.928204 14.9099 0.936044C14.7726 0.943885 14.6384 0.979956 14.5157 1.04201C14.3929 1.10405 14.2843 1.19075 14.1966 1.29666C14.1089 1.40258 14.044 1.52545 14.006 1.65759C13.9679 1.78973 13.9575 1.9283 13.9754 2.06464C13.9933 2.20099 14.0391 2.33217 14.11 2.45L15.38 5H8.62004L9.89004 2.45C9.9871 2.2169 9.9924 1.95572 9.90486 1.71888C9.81732 1.48205 9.64343 1.28709 9.4181 1.17316C9.19277 1.05923 8.93268 1.03476 8.69005 1.10466C8.44742 1.17455 8.24022 1.33365 8.11004 1.55L6.38004 5H5.00004C4.29323 5.01075 3.61291 5.27074 3.07909 5.73413C2.54526 6.19752 2.19221 6.83452 2.08221 7.5328C1.9722 8.23109 2.11231 8.94578 2.47782 9.55085C2.84333 10.1559 3.41076 10.6125 4.08004 10.84L4.82004 18.3C4.89466 19.0426 5.24338 19.7307 5.79811 20.2299C6.35284 20.7292 7.07374 21.0037 7.82004 21H16.2C16.9463 21.0037 17.6672 20.7292 18.222 20.2299C18.7767 19.7307 19.1254 19.0426 19.2 18.3L19.94 10.84C20.6108 10.6118 21.1791 10.1536 21.5443 9.54648C21.9096 8.93939 22.0482 8.22263 21.9356 7.52314C21.823 6.82365 21.4665 6.18658 20.9292 5.72477C20.3919 5.26296 19.7085 5.00621 19 5ZM17.19 18.1C17.1652 18.3475 17.0489 18.5769 16.864 18.7433C16.6791 18.9097 16.4388 19.0012 16.19 19H7.81004C7.56127 19.0012 7.32097 18.9097 7.13606 18.7433C6.95115 18.5769 6.83491 18.3475 6.81004 18.1L6.10004 11H17.9L17.19 18.1ZM19 9H5.00004C4.73482 9 4.48047 8.89464 4.29293 8.7071C4.10539 8.51957 4.00004 8.26521 4.00004 8C4.00004 7.73478 4.10539 7.48043 4.29293 7.29289C4.48047 7.10535 4.73482 7 5.00004 7H19C19.2653 7 19.5196 7.10535 19.7071 7.29289C19.8947 7.48043 20 7.73478 20 8C20 8.26521 19.8947 8.51957 19.7071 8.7071C19.5196 8.89464 19.2653 9 19 9Z" fill="#808080"/>
</g>
<defs>
<filter id="filter0_d_1620_281" x="-1.95435" y="0.934418" width="27.9281" height="28.0656" filterUnits="userSpaceOnUse" color-interpolation-filters="sRGB">
<feFlood flood-opacity="0" result="BackgroundImageFix"/>
<feColorMatrix in="SourceAlpha" type="matrix" values="0 0 0 0 0 0 0 0 0 0 0 0 0 0 0 0 0 0 127 0" result="hardAlpha"/>
<feOffset dy="4"/>
<feGaussianBlur stdDeviation="2"/>
<feComposite in2="hardAlpha" operator="out"/>
<feColorMatrix type="matrix" values="0 0 0 0 0 0 0 0 0 0 0 0 0 0 0 0 0 0 0.25 0"/>
<feBlend mode="normal" in2="BackgroundImageFix" result="effect1_dropShadow_1620_281"/>
<feBlend mode="normal" in="SourceGraphic" in2="effect1_dropShadow_1620_281" result="shape"/>
</filter>
</defs>
</svg>
