<svg width="144" height="139" viewBox="0 0 144 139" fill="none" xmlns="http://www.w3.org/2000/svg">
<g filter="url(#filter0_d_637_3358)">
<path fill-rule="evenodd" clip-rule="evenodd" d="M71.422 20.0034C81.0457 20.1618 89.207 26.3669 95.1161 34.0993C100.921 41.6956 105.225 51.3435 102.388 60.5232C99.7226 69.1434 90.4661 72.8309 82.1571 76.0174C75.014 78.7568 67.5451 79.3573 60.399 76.6259C52.1915 73.4889 43.8571 68.8518 41.1797 60.3552C38.2713 51.1254 40.9715 41.0103 46.7475 33.3035C52.6861 25.3797 61.6313 19.8423 71.422 20.0034Z" fill="#E91835"/>
</g>
<path fill-rule="evenodd" clip-rule="evenodd" d="M57.4548 36.1171C57.2074 36.2459 57 36.587 57 36.865C57 37.1519 57.2073 37.485 57.4672 37.6158C57.6851 37.7255 57.8098 37.7322 59.6221 37.7322H61.5457L63.6651 45.0518L65.7845 52.3714L65.6147 52.7033C65.3203 53.2786 65.1941 53.7303 65.1941 54.2086C65.1941 55.4104 65.9854 56.4175 67.1684 56.7215C67.4201 56.7862 67.8382 56.8115 68.7168 56.815C69.8031 56.8195 69.8918 56.827 69.6273 56.8923C69.134 57.0141 68.7646 57.2221 68.3926 57.5878C67.3528 58.6098 67.3535 60.2085 68.3943 61.2353C69.9084 62.7291 72.4681 61.9154 72.8315 59.8247C72.9739 59.0051 72.7064 58.1964 72.0909 57.5864C71.7216 57.2204 71.2487 56.9562 70.8095 56.8705C70.6712 56.8435 72.3476 56.8222 74.6666 56.8214C78.0646 56.8202 78.718 56.8324 78.4753 56.8923C77.9819 57.0141 77.6126 57.2221 77.2406 57.5878C76.2004 58.6101 76.2004 60.2137 77.2406 61.2353C78.7605 62.728 81.3159 61.916 81.6794 59.8247C81.9076 58.5116 81.0319 57.2081 79.7082 56.8908C79.4526 56.8295 79.6401 56.8193 81.0998 56.815C82.6693 56.8105 82.8028 56.802 83.018 56.6938C83.2779 56.5629 83.4852 56.2298 83.4852 55.943C83.4852 55.6561 83.2779 55.323 83.018 55.1922C82.7897 55.0773 82.6879 55.0758 75.2109 55.0757C68.1153 55.0756 67.6221 55.0692 67.4312 54.9745C66.957 54.7395 66.8365 54.2309 67.1199 53.6607L67.2787 53.3414H75.0327C82.7166 53.3414 82.7889 53.3404 83.0205 53.2237C83.1838 53.1416 83.2891 53.0325 83.3696 52.8624C83.5238 52.5363 87.0012 40.4946 87 40.291C86.9985 40.0541 86.7652 39.6956 86.5331 39.5738C86.3363 39.4705 85.9219 39.4666 75.1005 39.4666H63.8721L63.4779 38.0935C62.9964 36.4171 62.9334 36.2747 62.6031 36.117C62.3638 36.0027 62.2597 35.998 60.0138 36.0004C57.7999 36.0028 57.6621 36.0091 57.4548 36.1171ZM84.9273 41.3021C84.9104 41.3578 84.2324 43.6992 83.4207 46.5052L81.9448 51.6071H74.6666H67.3883L65.9124 46.5052C65.1007 43.6992 64.4228 41.3578 64.4058 41.3021C64.3767 41.206 64.8926 41.2009 74.6666 41.2009C84.4405 41.2009 84.9564 41.206 84.9273 41.3021ZM70.6543 58.6609C70.9157 58.7924 71.1215 59.1252 71.1215 59.4159C71.1215 59.8432 70.6756 60.2788 70.2383 60.2788C69.9657 60.2788 69.6037 60.054 69.4748 59.8047C69.2584 59.3862 69.3943 58.9293 69.8086 58.6818C70.0891 58.5143 70.3501 58.5078 70.6543 58.6609ZM79.5022 58.6609C79.7636 58.7924 79.9695 59.1252 79.9695 59.4159C79.9695 59.8432 79.5236 60.2788 79.0862 60.2788C78.8137 60.2788 78.4517 60.054 78.3228 59.8047C78.1064 59.3862 78.2422 58.9293 78.6565 58.6818C78.9371 58.5143 79.1981 58.5078 79.5022 58.6609Z" fill="white"/>
<defs>
<filter id="filter0_d_637_3358" x="0" y="0" width="143.284" height="138.398" filterUnits="userSpaceOnUse" color-interpolation-filters="sRGB">
<feFlood flood-opacity="0" result="BackgroundImageFix"/>
<feColorMatrix in="SourceAlpha" type="matrix" values="0 0 0 0 0 0 0 0 0 0 0 0 0 0 0 0 0 0 127 0" result="hardAlpha"/>
<feOffset dy="20"/>
<feGaussianBlur stdDeviation="20"/>
<feComposite in2="hardAlpha" operator="out"/>
<feColorMatrix type="matrix" values="0 0 0 0 0.913725 0 0 0 0 0.0941176 0 0 0 0 0.207843 0 0 0 0.15 0"/>
<feBlend mode="normal" in2="BackgroundImageFix" result="effect1_dropShadow_637_3358"/>
<feBlend mode="normal" in="SourceGraphic" in2="effect1_dropShadow_637_3358" result="shape"/>
</filter>
</defs>
</svg>
