<svg width="44" height="41" viewBox="0 0 44 41" fill="none" xmlns="http://www.w3.org/2000/svg">
<path fill-rule="evenodd" clip-rule="evenodd" d="M21.8472 0.00240428C28.5383 0.113567 34.2127 4.47009 38.3212 9.8988C42.3574 15.232 45.35 22.0056 43.3769 28.4504C41.524 34.5025 35.0881 37.0914 29.3111 39.3286C24.3446 41.2519 19.1516 41.6734 14.183 39.7558C8.47652 37.5534 2.68178 34.2977 0.82024 28.3325C-1.20196 21.8524 0.675445 14.7509 4.69139 9.34009C8.82043 3.77695 15.0398 -0.110688 21.8472 0.00240428Z" fill="#FCB32B"/>
<path d="M15 16.2H16.5556M16.5556 16.2H29M16.5556 16.2V27.4C16.5556 27.8243 16.7194 28.2313 17.0112 28.5314C17.3029 28.8314 17.6986 29 18.1111 29H25.8889C26.3014 29 26.6971 28.8314 26.9888 28.5314C27.2806 28.2313 27.4444 27.8243 27.4444 27.4V16.2H16.5556ZM18.8889 16.2V14.6C18.8889 14.1757 19.0528 13.7687 19.3445 13.4686C19.6362 13.1686 20.0319 13 20.4444 13H23.5556C23.9681 13 24.3638 13.1686 24.6555 13.4686C24.9472 13.7687 25.1111 14.1757 25.1111 14.6V16.2M20.4444 20.2V25M23.5556 20.2V25" stroke="white" stroke-width="2" stroke-linecap="round" stroke-linejoin="round"/>
</svg>
