<svg width="22" height="20" viewBox="0 0 22 20" fill="none" xmlns="http://www.w3.org/2000/svg">
<g filter="url(#filter0_d_1620_100)">
<path d="M15.3727 2.92249C15.5831 3.042 15.8324 3.07341 16.0659 3.00987C16.2995 2.94633 16.4984 2.79299 16.6193 2.58332C16.7001 2.44344 16.8164 2.32737 16.9564 2.24689C17.0965 2.1664 17.2553 2.12435 17.4168 2.12499C17.6599 2.12499 17.8931 2.22157 18.065 2.39347C18.2369 2.56538 18.3335 2.79854 18.3335 3.04166C18.3335 3.28477 18.2369 3.51793 18.065 3.68984C17.8931 3.86175 17.6599 3.95832 17.4168 3.95832C17.1737 3.95832 16.9406 4.0549 16.7686 4.22681C16.5967 4.39872 16.5002 4.63187 16.5002 4.87499C16.5002 5.1181 16.5967 5.35126 16.7686 5.52317C16.9406 5.69508 17.1737 5.79166 17.4168 5.79166C17.8995 5.79135 18.3735 5.66401 18.7914 5.42245C19.2093 5.18089 19.5562 4.83361 19.7973 4.41551C20.0384 3.99741 20.1653 3.52321 20.1651 3.04055C20.1649 2.5579 20.0377 2.0838 19.7962 1.66589C19.5547 1.24798 19.2075 0.900981 18.7895 0.659756C18.3714 0.418531 17.8973 0.291579 17.4146 0.291657C16.932 0.291734 16.4578 0.418838 16.0399 0.660196C15.6219 0.901555 15.2748 1.24867 15.0335 1.66666C14.9729 1.77128 14.9336 1.88686 14.9178 2.00674C14.9021 2.12662 14.9102 2.24843 14.9417 2.36516C14.9732 2.48189 15.0275 2.59123 15.1015 2.68688C15.1755 2.78253 15.2676 2.8626 15.3727 2.92249V2.92249ZM19.2502 10.375C19.007 10.375 18.7739 10.4716 18.602 10.6435C18.4301 10.8154 18.3335 11.0485 18.3335 11.2917V14.9583C18.3335 15.2014 18.2369 15.4346 18.065 15.6065C17.8931 15.7784 17.6599 15.875 17.4168 15.875H4.5835C4.34038 15.875 4.10722 15.7784 3.93531 15.6065C3.76341 15.4346 3.66683 15.2014 3.66683 14.9583V6.16749L9.05683 11.5667C9.57246 12.0816 10.2714 12.3709 11.0002 12.3709C11.7289 12.3709 12.4279 12.0816 12.9435 11.5667L14.4468 10.0633C14.5323 9.97785 14.6001 9.87639 14.6464 9.76472C14.6926 9.65305 14.7164 9.53336 14.7164 9.41249C14.7164 9.29162 14.6926 9.17193 14.6464 9.06026C14.6001 8.94859 14.5323 8.84712 14.4468 8.76166C14.3614 8.67619 14.2599 8.60839 14.1482 8.56213C14.0366 8.51588 13.9169 8.49207 13.796 8.49207C13.6751 8.49207 13.5554 8.51588 13.4438 8.56213C13.3321 8.60839 13.2306 8.67619 13.1452 8.76166L11.6418 10.265C11.4705 10.4329 11.2401 10.527 11.0002 10.527C10.7602 10.527 10.5298 10.4329 10.3585 10.265L4.95933 4.87499H11.9168C12.1599 4.87499 12.3931 4.77841 12.565 4.6065C12.7369 4.4346 12.8335 4.20144 12.8335 3.95832C12.8335 3.71521 12.7369 3.48205 12.565 3.31014C12.3931 3.13823 12.1599 3.04166 11.9168 3.04166H4.5835C3.85415 3.04166 3.15468 3.33139 2.63895 3.84711C2.12323 4.36284 1.8335 5.06231 1.8335 5.79166V14.9583C1.8335 15.6877 2.12323 16.3871 2.63895 16.9029C3.15468 17.4186 3.85415 17.7083 4.5835 17.7083H17.4168C18.1462 17.7083 18.8456 17.4186 19.3614 16.9029C19.8771 16.3871 20.1668 15.6877 20.1668 14.9583V11.2917C20.1668 11.0485 20.0703 10.8154 19.8983 10.6435C19.7264 10.4716 19.4933 10.375 19.2502 10.375ZM16.766 6.97416C16.6801 7.05937 16.6119 7.16076 16.5653 7.27246C16.5188 7.38416 16.4948 7.50398 16.4948 7.62499C16.4948 7.746 16.5188 7.86581 16.5653 7.97752C16.6119 8.08922 16.6801 8.19061 16.766 8.27582L16.9035 8.38582C16.9546 8.42051 17.0101 8.44826 17.0685 8.46832C17.1205 8.49475 17.1761 8.51329 17.2335 8.52332H17.4168C17.5989 8.52438 17.7772 8.47119 17.9289 8.37054C18.0806 8.26989 18.1989 8.12634 18.2688 7.95818C18.3386 7.79002 18.3567 7.60488 18.3209 7.42637C18.2851 7.24785 18.1969 7.08404 18.0677 6.95582C17.9812 6.87109 17.8789 6.80432 17.7665 6.75935C17.6542 6.71437 17.534 6.6921 17.413 6.6938C17.292 6.69551 17.1725 6.72116 17.0615 6.76928C16.9504 6.81739 16.85 6.88703 16.766 6.97416Z" fill="#E91835"/>
</g>
<defs>
<filter id="filter0_d_1620_100" x="-2.1665" y="0.291656" width="26.3335" height="25.4167" filterUnits="userSpaceOnUse" color-interpolation-filters="sRGB">
<feFlood flood-opacity="0" result="BackgroundImageFix"/>
<feColorMatrix in="SourceAlpha" type="matrix" values="0 0 0 0 0 0 0 0 0 0 0 0 0 0 0 0 0 0 127 0" result="hardAlpha"/>
<feOffset dy="4"/>
<feGaussianBlur stdDeviation="2"/>
<feComposite in2="hardAlpha" operator="out"/>
<feColorMatrix type="matrix" values="0 0 0 0 0 0 0 0 0 0 0 0 0 0 0 0 0 0 0.25 0"/>
<feBlend mode="normal" in2="BackgroundImageFix" result="effect1_dropShadow_1620_100"/>
<feBlend mode="normal" in="SourceGraphic" in2="effect1_dropShadow_1620_100" result="shape"/>
</filter>
</defs>
</svg>
