<svg width="20" height="18" viewBox="0 0 20 18" fill="none" xmlns="http://www.w3.org/2000/svg">
<path fill-rule="evenodd" clip-rule="evenodd" d="M9.93053 0.00105554C12.972 0.0498588 15.5512 1.96248 17.4187 4.34581C19.2534 6.68721 20.6137 9.66097 19.7168 12.4904C18.8746 15.1474 15.9492 16.284 13.3232 17.2662C11.0657 18.1106 8.70528 18.2957 6.44684 17.4538C3.85296 16.4868 1.21899 15.0575 0.372836 12.4387C-0.546344 9.59375 0.30702 6.476 2.13245 4.10053C4.00928 1.65817 6.83629 -0.0485949 9.93053 0.00105554Z" fill="#E91835"/>
<path d="M14.1465 5.64648L8.5 11.293L6.35352 9.14648L5.64648 9.85352L8.5 12.707L14.8535 6.35352L14.1465 5.64648Z" fill="white"/>
</svg>
