<svg width="45" height="41" viewBox="0 0 45 41" fill="none" xmlns="http://www.w3.org/2000/svg">
<g filter="url(#filter0_d_1620_4177)">
<path fill-rule="evenodd" clip-rule="evenodd" d="M22.4132 5.00122C26.215 5.05761 29.439 7.26775 31.7734 10.0218C34.0667 12.7274 35.7671 16.1638 34.646 19.4334C33.5932 22.5037 29.9364 23.8171 26.654 24.9521C23.8322 25.9278 20.8816 26.1416 18.0585 25.1688C14.8162 24.0515 11.5237 22.3998 10.466 19.3736C9.31707 16.0861 10.3838 12.4834 12.6656 9.73839C15.0116 6.91611 18.5454 4.94385 22.4132 5.00122Z" fill="white"/>
</g>
<path d="M27.3468 14.441H23.7258V18.113H22.2808V14.441H18.6768V13.132H22.2808V9.443H23.7258V13.132H27.3468V14.441Z" fill="#808080" fill-opacity="0.8"/>
<defs>
<filter id="filter0_d_1620_4177" x="0" y="0" width="45" height="40.8" filterUnits="userSpaceOnUse" color-interpolation-filters="sRGB">
<feFlood flood-opacity="0" result="BackgroundImageFix"/>
<feColorMatrix in="SourceAlpha" type="matrix" values="0 0 0 0 0 0 0 0 0 0 0 0 0 0 0 0 0 0 127 0" result="hardAlpha"/>
<feOffset dy="5"/>
<feGaussianBlur stdDeviation="5"/>
<feComposite in2="hardAlpha" operator="out"/>
<feColorMatrix type="matrix" values="0 0 0 0 0 0 0 0 0 0 0 0 0 0 0 0 0 0 0.1 0"/>
<feBlend mode="normal" in2="BackgroundImageFix" result="effect1_dropShadow_1620_4177"/>
<feBlend mode="normal" in="SourceGraphic" in2="effect1_dropShadow_1620_4177" result="shape"/>
</filter>
</defs>
</svg>
