<svg width="16" height="10" viewBox="0 0 16 10" fill="none" xmlns="http://www.w3.org/2000/svg">
<path fill-rule="evenodd" clip-rule="evenodd" d="M7.3441 9.98866C5.49286 9.81954 3.91466 9.18484 2.42224 8.00933C2.001 7.67751 1.1993 6.88833 0.859024 6.47047C0.487695 6.01446 0.0331489 5.34268 0.00834976 5.21321C-0.00278325 5.15511 -0.00278325 5.05998 0.00834976 5.00188C0.0331489 4.87242 0.487695 4.20063 0.859024 3.74462C1.1993 3.32677 2.001 2.53759 2.42224 2.20577C3.77881 1.13727 5.21028 0.515556 6.85937 0.278713C7.38475 0.203247 8.61689 0.203247 9.14227 0.278713C10.2313 0.435128 11.2068 0.750439 12.1132 1.23895C13.5069 1.99018 14.7744 3.14022 15.695 4.48887C16.1019 5.08494 16.1019 5.13015 15.695 5.72622C15.2944 6.31311 14.9332 6.74165 14.3811 7.28511C12.8787 8.76387 11.1921 9.62968 9.25172 9.91816C8.84193 9.97911 7.70085 10.0213 7.3441 9.98866ZM8.7902 8.98255C10.2329 8.8326 11.6486 8.24409 12.8755 7.28425C13.5247 6.77641 14.3186 5.95357 14.7524 5.33906L14.9151 5.10856L14.788 4.92525C14.2485 4.14719 13.3142 3.21822 12.4884 2.63869C10.9532 1.56133 9.1064 1.05344 7.32608 1.21898C5.52225 1.38673 3.87638 2.16758 2.42227 3.54554C2.02321 3.9237 1.51281 4.50265 1.2489 4.87655L1.08584 5.10755L1.24286 5.3296C1.54883 5.76237 1.82653 6.07856 2.35394 6.59476C3.10846 7.33319 3.79676 7.82605 4.6743 8.25619C5.94834 8.88068 7.36496 9.13069 8.7902 8.98255ZM7.47988 8.0025C6.8503 7.89058 6.3364 7.62229 5.87316 7.16358C5.47044 6.76484 5.21109 6.3117 5.0709 5.76185C4.99663 5.47055 4.99663 4.74455 5.0709 4.45325C5.21109 3.90339 5.47044 3.45026 5.87316 3.05152C6.42872 2.50142 7.07731 2.216 7.86009 2.17722C8.72606 2.13428 9.48189 2.42417 10.1113 3.04059C10.5396 3.46003 10.7857 3.88434 10.9308 4.45356C11.005 4.74452 11.005 5.4707 10.9307 5.76185C10.8529 6.06714 10.7071 6.40711 10.5414 6.66955C10.3449 6.98067 9.89703 7.41433 9.56814 7.61184C8.95448 7.98038 8.17551 8.12611 7.47988 8.0025ZM8.423 7.02205C9.09867 6.88432 9.70201 6.34006 9.91717 5.67416C10.0154 5.37012 10.0154 4.84498 9.91717 4.54094C9.7205 3.93225 9.20115 3.42358 8.57936 3.23063C8.40211 3.17562 8.28903 3.16297 7.98518 3.16417C7.66123 3.16545 7.57855 3.17666 7.38053 3.24622C7.05267 3.36141 6.83067 3.49936 6.57845 3.74462C5.80402 4.49763 5.81046 5.71915 6.59287 6.48689C7.07787 6.96281 7.74973 7.15926 8.423 7.02205Z" fill="white"/>
</svg>
