<svg width="16" height="11" viewBox="0 0 16 11" fill="none" xmlns="http://www.w3.org/2000/svg">
<path fill-rule="evenodd" clip-rule="evenodd" d="M7.3441 10.3346C5.49286 10.1766 3.91466 9.58343 2.42224 8.48488C2.001 8.17478 1.1993 7.43727 0.859024 7.04678C0.487695 6.62062 0.0331489 5.99282 0.00834976 5.87183C-0.00278325 5.81753 -0.00278325 5.72863 0.00834976 5.67434C0.0331489 5.55335 0.487695 4.92555 0.859024 4.49939C1.1993 4.1089 2.001 3.37139 2.42224 3.06129C3.77881 2.06274 5.21028 1.48174 6.85937 1.2604C7.38475 1.18988 8.61689 1.18988 9.14227 1.2604C10.2313 1.40658 11.2068 1.70124 12.1132 2.15777C13.5069 2.85982 14.7744 3.93456 15.695 5.19491C16.1019 5.75196 16.1019 5.79421 15.695 6.35125C15.2944 6.89971 14.9332 7.3002 14.3811 7.80807C12.8787 9.19002 11.1921 9.99914 9.25172 10.2687C8.84193 10.3257 7.70085 10.3651 7.3441 10.3346ZM8.7902 9.39438C10.2329 9.25424 11.6486 8.70427 12.8755 7.80727C13.5247 7.33268 14.3186 6.56372 14.7524 5.98944L14.9151 5.77403L14.788 5.60272C14.2485 4.8756 13.3142 4.00746 12.4884 3.46587C10.9532 2.45905 9.1064 1.9844 7.32608 2.13911C5.52225 2.29587 3.87638 3.0256 2.42227 4.31335C2.02321 4.66675 1.51281 5.20779 1.2489 5.55721L1.08584 5.77308L1.24286 5.9806C1.54883 6.38503 1.82653 6.68053 2.35394 7.16293C3.10846 7.85301 3.79676 8.3136 4.6743 8.71557C5.94834 9.29918 7.36496 9.53282 8.7902 9.39438ZM7.47988 8.47849C6.8503 8.37391 6.3364 8.12318 5.87316 7.6945C5.47044 7.32187 5.21109 6.8984 5.0709 6.38454C4.99663 6.11232 4.99663 5.43385 5.0709 5.16162C5.21109 4.64777 5.47044 4.2243 5.87316 3.85167C6.42872 3.33758 7.07731 3.07085 7.86009 3.03462C8.72606 2.99449 9.48189 3.2654 10.1113 3.84145C10.5396 4.23343 10.7857 4.62997 10.9308 5.16191C11.005 5.43382 11.005 6.11246 10.9307 6.38454C10.8529 6.66985 10.7071 6.98756 10.5414 7.23282C10.3449 7.52357 9.89703 7.92883 9.56814 8.11342C8.95448 8.45783 8.17551 8.59401 7.47988 8.47849ZM8.423 7.56224C9.09867 7.43352 9.70201 6.9249 9.91717 6.3026C10.0154 6.01846 10.0154 5.5277 9.91717 5.24357C9.7205 4.67473 9.20115 4.19937 8.57936 4.01905C8.40211 3.96764 8.28903 3.95582 7.98518 3.95694C7.66123 3.95814 7.57855 3.96862 7.38053 4.03362C7.05267 4.14127 6.83067 4.27018 6.57845 4.49939C5.80402 5.2031 5.81046 6.34464 6.59287 7.06212C7.07787 7.50688 7.74973 7.69046 8.423 7.56224Z" fill="white"/>
<line y1="-0.5" x2="14.3237" y2="-0.5" transform="matrix(0.73062 0.682784 -0.73062 0.682784 2 1)" stroke="white"/>
</svg>
