<svg width="18" height="11" viewBox="0 0 18 11" fill="none" xmlns="http://www.w3.org/2000/svg">
<path fill-rule="evenodd" clip-rule="evenodd" d="M8.26202 10.9872C6.1794 10.797 4.40394 10.083 2.72499 8.76052C2.2511 8.38723 1.3492 7.49941 0.966392 7.02933C0.54865 6.51632 0.037292 5.76057 0.00939337 5.61492C-0.00313112 5.54956 -0.00313112 5.44254 0.00939337 5.37718C0.037292 5.23154 0.54865 4.47579 0.966392 3.96278C1.3492 3.4927 2.2511 2.60488 2.72499 2.23159C4.25112 1.02953 5.8615 0.330119 7.71671 0.063673C8.30775 -0.021225 9.69389 -0.021225 10.2849 0.063673C11.51 0.239638 12.6075 0.594358 13.6271 1.14393C15.1951 1.98905 16.6211 3.28283 17.6567 4.80005C18.1144 5.47062 18.1144 5.52148 17.6567 6.19206C17.206 6.8523 16.7997 7.3344 16.1785 7.94578C14.4883 9.60937 12.5909 10.5834 10.4081 10.9079C9.94706 10.9765 8.66336 11.0239 8.26202 10.9872ZM9.88887 9.85538C11.5119 9.68669 13.1045 9.02462 14.4848 7.94481C15.2151 7.37351 16.1083 6.44782 16.5962 5.7565L16.7793 5.49719L16.6363 5.29097C16.0294 4.41566 14.9784 3.37059 14.0493 2.71862C12.3222 1.50661 10.2446 0.935228 8.24175 1.12146C6.21247 1.31017 4.36088 2.18862 2.72503 3.73881C2.27608 4.16424 1.70189 4.81555 1.405 5.23619L1.22156 5.49605L1.39821 5.74586C1.74242 6.23271 2.05483 6.58843 2.64816 7.16915C3.49697 7.99987 4.27131 8.55434 5.25853 9.03823C6.69181 9.74078 8.28548 10.022 9.88887 9.85538ZM8.41477 8.75283C7.70651 8.62693 7.12837 8.3251 6.60724 7.80906C6.15417 7.36048 5.86241 6.85071 5.7047 6.23213C5.62114 5.90442 5.62114 5.08768 5.7047 4.75998C5.86241 4.14139 6.15417 3.63162 6.60724 3.18305C7.23223 2.56419 7.96189 2.2431 8.84251 2.19948C9.81671 2.15117 10.667 2.47729 11.3751 3.17074C11.8569 3.64261 12.1337 4.11996 12.2971 4.76032C12.3805 5.08765 12.3805 5.90459 12.2969 6.23213C12.2094 6.57558 12.0453 6.95804 11.8589 7.25329C11.6379 7.60329 11.134 8.09115 10.764 8.31335C10.0737 8.72796 9.19734 8.8919 8.41477 8.75283ZM9.47577 7.64984C10.2359 7.49489 10.9146 6.88262 11.1567 6.13348C11.2672 5.79144 11.2672 5.20066 11.1567 4.85862C10.9354 4.17385 10.3512 3.60161 9.65167 3.38454C9.45227 3.32266 9.32505 3.30843 8.98323 3.30977C8.61879 3.31122 8.52577 3.32383 8.303 3.40208C7.93416 3.53167 7.68441 3.68686 7.40068 3.96278C6.52945 4.8099 6.5367 6.1841 7.4169 7.0478C7.96252 7.5832 8.71835 7.8042 9.47577 7.64984Z" fill="#808080"/>
</svg>
