<svg width="22" height="22" viewBox="0 0 22 22" fill="none" xmlns="http://www.w3.org/2000/svg">
<path fill-rule="evenodd" clip-rule="evenodd" d="M10.103 1.08559C8.1704 1.2748 6.38422 1.98677 4.81813 3.19213C4.05548 3.77909 3.06507 4.88221 2.49272 5.78207C2.24554 6.17071 1.76437 7.15551 1.592 7.62549C1.39927 8.15103 1.19386 8.95413 1.09278 9.57728C0.969073 10.34 0.969073 11.7881 1.09278 12.5509C1.2677 13.6291 1.5444 14.5007 2.01801 15.4657C2.53547 16.52 3.07353 17.2673 3.93514 18.1285C4.7968 18.9896 5.54453 19.5273 6.59938 20.0445C7.56493 20.5178 8.43708 20.7944 9.51593 20.9692C10.2791 21.0928 11.728 21.0928 12.4912 20.9692C13.57 20.7944 14.4422 20.5178 15.4077 20.0445C16.4626 19.5273 17.2103 18.9896 18.072 18.1285C18.9336 17.2673 19.4717 16.52 19.9891 15.4657C20.3328 14.7655 20.5057 14.3065 20.6908 13.6028C20.9374 12.6655 21 12.1518 21 11.0641C21 9.97637 20.9374 9.46261 20.6908 8.52538C20.5057 7.82163 20.3328 7.36268 19.9891 6.6624C19.4717 5.60815 18.9336 4.86085 18.072 3.99969C17.2103 3.13856 16.4626 2.60082 15.4077 2.08365C14.4431 1.61073 13.5537 1.3286 12.5108 1.16462C11.9353 1.07416 10.6504 1.03198 10.103 1.08559ZM12.5303 2.17571C14.0108 2.45445 15.272 3.00268 16.445 3.87742C16.9231 4.23393 17.8376 5.14795 18.1943 5.62576C19.0854 6.81934 19.6379 8.10638 19.9158 9.63597C20.0183 10.1999 20.0183 11.9282 19.9158 12.4922C19.6379 14.0218 19.0854 15.3088 18.1943 16.5024C17.8376 16.9802 16.9231 17.8942 16.445 18.2507C15.2507 19.1413 13.9629 19.6935 12.4325 19.9712C11.8682 20.0737 10.1389 20.0737 9.57465 19.9712C8.04419 19.6935 6.7564 19.1413 5.56215 18.2507C5.08407 17.8942 4.16952 16.9802 3.8128 16.5024C2.92171 15.3088 2.36921 14.0218 2.0913 12.4922C1.98881 11.9282 1.98881 10.1999 2.0913 9.63597C2.25744 8.7214 2.49621 7.9651 2.85708 7.21016C3.33187 6.21695 3.83684 5.50736 4.64024 4.70438C5.44368 3.90144 6.15368 3.39675 7.14746 2.92224C8.06298 2.48512 8.85048 2.26156 10.0836 2.0887C10.1482 2.07962 10.6326 2.07809 11.1602 2.08525C11.9084 2.09543 12.2097 2.11534 12.5303 2.17571ZM10.1404 5.41221C8.53695 5.70249 7.24728 6.922 7.24599 8.14919C7.24564 8.4933 7.30628 8.66213 7.49971 8.85545C7.71143 9.06704 8.01028 9.1665 8.34355 9.1363C8.81388 9.09365 9.02325 8.90401 9.38513 8.19273C9.79513 7.38694 10.0898 7.16595 10.8125 7.12241C11.5246 7.07948 12.078 7.34859 12.3088 7.84991C12.3755 7.99491 12.3926 8.10717 12.3929 8.40351C12.3933 8.73917 12.382 8.79762 12.2762 9.00628C12.127 9.30059 11.8156 9.61825 11.1993 10.1051C10.6297 10.555 10.267 10.8927 10.0797 11.1477C9.78891 11.5434 9.66399 12.1434 9.78539 12.561C9.85425 12.7979 10.0925 13.0699 10.3081 13.1575C10.5513 13.2565 10.9945 13.2463 11.2214 13.1365C11.4485 13.0266 11.5505 12.8884 11.7597 12.4068C11.8537 12.1903 11.9713 11.9561 12.0208 11.8865C12.0704 11.8169 12.4212 11.5296 12.8002 11.2479C14.3159 10.122 14.7623 9.4747 14.7615 8.40429C14.7603 6.7943 13.599 5.66931 11.6691 5.40873C11.1609 5.3401 10.5308 5.34151 10.1404 5.41221ZM10.5646 14.2742C9.93822 14.3776 9.49001 14.9409 9.52309 15.5831C9.57242 16.5415 10.6262 17.082 11.4466 16.5697C11.8368 16.326 12.0406 15.9184 12.0146 15.4334C11.9746 14.6849 11.3074 14.1515 10.5646 14.2742Z" fill="#808080" stroke="#808080" stroke-width="0.6"/>
</svg>
