<svg width="26" height="23" viewBox="0 0 26 23" fill="none" xmlns="http://www.w3.org/2000/svg">
<path fill-rule="evenodd" clip-rule="evenodd" d="M6.16404 0.0302196C3.83161 0.388176 1.93005 1.81249 0.818551 4.03402C0.506399 4.65786 0.296215 5.27455 0.136559 6.03469C0.0198126 6.59049 0.00188677 6.79819 0.000109431 7.61409C-0.00161713 8.40516 0.0162579 8.63779 0.113199 9.08675C0.359438 10.2267 0.899344 11.5022 1.61343 12.6306C3.32582 15.3369 6.57801 18.3926 10.6679 21.1381C12.2131 22.1754 12.6838 22.4422 12.9686 22.4422C13.2361 22.4422 13.5851 22.2521 14.8476 21.4185C20.1862 17.8937 23.998 13.9678 25.3303 10.6217C25.8002 9.44156 25.9406 8.73666 25.9396 7.56331C25.9387 6.5713 25.8402 5.92485 25.5585 5.06294C24.954 3.21288 23.6332 1.61205 22.0153 0.768223C21.4015 0.448098 21.0991 0.331454 20.459 0.167888C19.7696 -0.00822171 18.554 -0.0538741 17.8437 0.0696766C17.024 0.21227 16.0312 0.589067 15.3849 1.00278C14.596 1.5079 13.7448 2.32898 13.2638 3.04881C13.1163 3.2695 12.9836 3.45003 12.9687 3.45003C12.9539 3.45003 12.8168 3.26148 12.6642 3.03109C12.3001 2.48173 11.3414 1.52563 10.7851 1.15711C9.94521 0.600747 9.04623 0.236188 8.11292 0.0734345C7.71363 0.00376262 6.51011 -0.0228976 6.16404 0.0302196ZM8.32224 1.66847C8.54568 1.72855 8.97986 1.90242 9.28709 2.05482C10.5422 2.67739 11.5099 3.74984 12.0812 5.1512C12.3521 5.81588 12.3871 5.87499 12.5784 5.99163C12.8982 6.18663 13.4211 6.07461 13.5851 5.77601C13.6204 5.71167 13.7424 5.4305 13.8562 5.1512C14.5753 3.38732 15.9427 2.12708 17.6406 1.66355C18.0108 1.56249 18.1915 1.54573 18.9101 1.54573C19.9269 1.54573 20.3218 1.6344 21.1699 2.05309C22.9336 2.92378 24.1285 4.69311 24.3978 6.83272C24.7031 9.25813 23.4174 11.8993 20.461 14.9198C18.6951 16.724 16.6878 18.3493 14.0773 20.0889L12.9769 20.8221L12.2492 20.3552C9.40409 18.5299 6.67982 16.3096 4.90329 14.368C3.10416 12.4018 2.02136 10.5968 1.63075 8.91262C1.48693 8.29248 1.47708 7.03122 1.61104 6.39534C2.13825 3.89289 3.83795 2.05929 6.06248 1.59311C6.56572 1.48769 7.80341 1.52893 8.32224 1.66847Z" fill="#808080"/>
</svg>
