<svg width="12" height="12" viewBox="0 0 12 12" fill="none" xmlns="http://www.w3.org/2000/svg">
<path fill-rule="evenodd" clip-rule="evenodd" d="M5.28069 0.0189696C3.94678 0.19859 2.75938 0.767708 1.82015 1.67762C0.824901 2.64185 0.182347 3.95237 0.0283351 5.33229C0.0127593 5.47187 0 5.77007 0 5.99494C0 6.94045 0.195811 7.79729 0.602163 8.63001C1.51511 10.5008 3.28696 11.7418 5.37908 11.9756C5.83858 12.0269 6.63086 11.9944 7.10518 11.9047C9.0107 11.5443 10.6279 10.2824 11.4549 8.51067C11.9877 7.36922 12.1389 5.98601 11.8687 4.72612C11.3635 2.37126 9.48184 0.537782 7.10518 0.084586C6.77581 0.0217612 6.62354 0.00921314 6.09751 0.00151513C5.7567 -0.00350409 5.38913 0.0043631 5.28069 0.0189696ZM6.83211 1.25855C8.5383 1.54811 9.99593 2.80134 10.5482 4.45351C11.2443 6.53637 10.478 8.77782 8.6508 10.0027C7.25404 10.9391 5.43321 11.0626 3.90737 10.3244C1.93042 9.36806 0.846504 7.16634 1.29474 5.01747C1.68622 3.14064 3.15072 1.67678 5.0299 1.28393C5.60083 1.16456 6.22648 1.15574 6.83211 1.25855ZM5.40744 4.78244V6.5871H5.99893H6.59042V4.78244V2.97777H5.99893H5.40744V4.78244ZM5.40744 8.40586V9.01212H5.99893H6.59042V8.40586V7.79961H5.99893H5.40744V8.40586Z" fill="#808080"/>
</svg>
