<svg width="12" height="14" viewBox="0 0 12 14" fill="none" xmlns="http://www.w3.org/2000/svg">
<path d="M9.33341 4.99992V3.66659C9.33341 2.78253 8.98222 1.93468 8.3571 1.30956C7.73198 0.684441 6.88414 0.333252 6.00008 0.333252C5.11603 0.333252 4.26818 0.684441 3.64306 1.30956C3.01794 1.93468 2.66675 2.78253 2.66675 3.66659V4.99992C2.13631 4.99992 1.62761 5.21063 1.25253 5.5857C0.877462 5.96078 0.666748 6.46949 0.666748 6.99992V11.6666C0.666748 12.197 0.877462 12.7057 1.25253 13.0808C1.62761 13.4559 2.13631 13.6666 2.66675 13.6666H9.33341C9.86385 13.6666 10.3726 13.4559 10.7476 13.0808C11.1227 12.7057 11.3334 12.197 11.3334 11.6666V6.99992C11.3334 6.46949 11.1227 5.96078 10.7476 5.5857C10.3726 5.21063 9.86385 4.99992 9.33341 4.99992ZM4.00008 3.66659C4.00008 3.13615 4.21079 2.62744 4.58587 2.25237C4.96094 1.8773 5.46965 1.66659 6.00008 1.66659C6.53051 1.66659 7.03922 1.8773 7.41429 2.25237C7.78937 2.62744 8.00008 3.13615 8.00008 3.66659V4.99992H4.00008V3.66659ZM10.0001 11.6666C10.0001 11.8434 9.92984 12.013 9.80482 12.138C9.6798 12.263 9.51023 12.3333 9.33341 12.3333H2.66675C2.48994 12.3333 2.32037 12.263 2.19534 12.138C2.07032 12.013 2.00008 11.8434 2.00008 11.6666V6.99992C2.00008 6.82311 2.07032 6.65354 2.19534 6.52851C2.32037 6.40349 2.48994 6.33325 2.66675 6.33325H9.33341C9.51023 6.33325 9.6798 6.40349 9.80482 6.52851C9.92984 6.65354 10.0001 6.82311 10.0001 6.99992V11.6666Z" fill="#808080"/>
</svg>
