<svg width="16" height="21" viewBox="0 0 16 21" fill="none" xmlns="http://www.w3.org/2000/svg">
<path d="M0 10.0619C0 10.3271 0.105357 10.5815 0.292893 10.769C0.48043 10.9566 0.734784 11.0619 1 11.0619H8.59L6.29 13.3519C6.19627 13.4449 6.12188 13.5555 6.07111 13.6773C6.02034 13.7992 5.9942 13.9299 5.9942 14.0619C5.9942 14.1939 6.02034 14.3246 6.07111 14.4465C6.12188 14.5684 6.19627 14.679 6.29 14.7719C6.38296 14.8656 6.49356 14.94 6.61542 14.9908C6.73728 15.0416 6.86799 15.0677 7 15.0677C7.13201 15.0677 7.26272 15.0416 7.38458 14.9908C7.50644 14.94 7.61704 14.8656 7.71 14.7719L11.71 10.7719C11.801 10.6768 11.8724 10.5647 11.92 10.4419C12.02 10.1985 12.02 9.92538 11.92 9.68192C11.8724 9.55917 11.801 9.44702 11.71 9.35192L7.71 5.35192C7.61676 5.25868 7.50607 5.18472 7.38425 5.13426C7.26243 5.0838 7.13186 5.05783 7 5.05783C6.86814 5.05783 6.73757 5.0838 6.61575 5.13426C6.49393 5.18472 6.38324 5.25868 6.29 5.35192C6.19676 5.44516 6.1228 5.55585 6.07234 5.67767C6.02188 5.79949 5.99591 5.93006 5.99591 6.06192C5.99591 6.19378 6.02188 6.32435 6.07234 6.44617C6.1228 6.56799 6.19676 6.67868 6.29 6.77192L8.59 9.06192H1C0.734784 9.06192 0.48043 9.16728 0.292893 9.35481C0.105357 9.54235 0 9.7967 0 10.0619ZM13 0.0619202H3C2.20435 0.0619202 1.44129 0.377991 0.87868 0.9406C0.316071 1.50321 0 2.26627 0 3.06192V6.06192C0 6.32714 0.105357 6.58149 0.292893 6.76903C0.48043 6.95656 0.734784 7.06192 1 7.06192C1.26522 7.06192 1.51957 6.95656 1.70711 6.76903C1.89464 6.58149 2 6.32714 2 6.06192V3.06192C2 2.7967 2.10536 2.54235 2.29289 2.35481C2.48043 2.16728 2.73478 2.06192 3 2.06192H13C13.2652 2.06192 13.5196 2.16728 13.7071 2.35481C13.8946 2.54235 14 2.7967 14 3.06192V17.0619C14 17.3271 13.8946 17.5815 13.7071 17.769C13.5196 17.9566 13.2652 18.0619 13 18.0619H3C2.73478 18.0619 2.48043 17.9566 2.29289 17.769C2.10536 17.5815 2 17.3271 2 17.0619V14.0619C2 13.7967 1.89464 13.5423 1.70711 13.3548C1.51957 13.1673 1.26522 13.0619 1 13.0619C0.734784 13.0619 0.48043 13.1673 0.292893 13.3548C0.105357 13.5423 0 13.7967 0 14.0619V17.0619C0 17.8576 0.316071 18.6206 0.87868 19.1832C1.44129 19.7458 2.20435 20.0619 3 20.0619H13C13.7956 20.0619 14.5587 19.7458 15.1213 19.1832C15.6839 18.6206 16 17.8576 16 17.0619V3.06192C16 2.26627 15.6839 1.50321 15.1213 0.9406C14.5587 0.377991 13.7956 0.0619202 13 0.0619202Z" fill="#808080"/>
</svg>
