<svg width="20" height="21" viewBox="0 0 20 21" fill="none" xmlns="http://www.w3.org/2000/svg">
<path d="M9 2.06192H5.8C4.11984 2.06192 3.27976 2.06192 2.63803 2.3889C2.07354 2.67652 1.6146 3.13546 1.32698 3.69995C1 4.34168 1 5.18176 1 6.86192V14.2619C1 15.9421 1 16.7822 1.32698 17.4239C1.6146 17.9884 2.07354 18.4473 2.63803 18.7349C3.27976 19.0619 4.11984 19.0619 5.8 19.0619H13.2C14.8802 19.0619 15.7202 19.0619 16.362 18.7349C16.9265 18.4473 17.3854 17.9884 17.673 17.4239C18 16.7822 18 15.9421 18 14.2619V11.0619M18.1213 1.9406C19.2929 3.11217 19.2929 5.01167 18.1213 6.18324C16.9497 7.35481 15.0503 7.35481 13.8787 6.18324C12.7071 5.01167 12.7071 3.11217 13.8787 1.9406C15.0503 0.769027 16.9497 0.769027 18.1213 1.9406Z" stroke="#808080" stroke-width="2" stroke-linecap="round" stroke-linejoin="round"/>
</svg>
