<svg width="84" height="83" viewBox="0 0 84 83" fill="none" xmlns="http://www.w3.org/2000/svg">
<path fill-rule="evenodd" clip-rule="evenodd" d="M41.6337 3.00473C52.1619 3.1926 61.0743 10.555 67.5187 19.7293C73.8497 28.7421 78.5332 40.1892 75.4043 51.0809C72.466 61.3086 62.3294 65.6838 53.2307 69.4646C45.4087 72.7148 37.2358 73.4272 29.4249 70.1865C20.4539 66.4645 11.348 60.9626 8.44119 50.8815C5.28354 39.9305 8.26431 27.9291 14.6038 18.7851C21.1217 9.38357 30.9227 2.81361 41.6337 3.00473Z" fill="#FCB32B" fill-opacity="0.1"/>
<path fill-rule="evenodd" clip-rule="evenodd" d="M39.3259 4.06035C50.1586 4.24316 59.8605 11.4077 67.1601 20.3355C74.3313 29.1062 79.9892 40.2457 77.578 50.8446C75.3138 60.7976 65.2204 65.0552 56.1497 68.7343C48.3517 71.8973 40.0059 72.5905 31.7402 69.4369C22.2468 65.8149 12.4833 60.4608 8.75206 50.6507C4.69876 39.9938 6.87574 28.315 12.7151 19.4167C18.7188 10.2678 28.3052 3.87436 39.3259 4.06035Z" fill="#FCB32B" fill-opacity="0.1"/>
<path fill-rule="evenodd" clip-rule="evenodd" d="M41.5598 3.00406C52.0882 3.19193 61.0168 10.5544 67.4814 19.729C73.8323 28.742 78.5411 40.1894 75.4364 51.0812C72.5209 61.3092 62.3942 65.6845 53.3041 69.4654C45.4895 72.7157 37.3184 73.4281 29.5004 70.1873C20.5213 66.4652 11.4034 60.9632 8.47432 50.8819C5.29243 39.9306 8.24648 27.929 14.5655 18.7848C21.0625 9.38304 30.8486 2.81294 41.5598 3.00406Z" fill="#FCB32B" fill-opacity="0.1"/>
<g filter="url(#filter0_d_1630_6531)">
<path fill-rule="evenodd" clip-rule="evenodd" d="M41.5683 4.36255C51.7208 4.54304 60.3304 11.6168 66.5642 20.4316C72.6883 29.0912 77.2289 40.0896 74.2351 50.5544C71.4238 60.3813 61.6587 64.585 52.8933 68.2175C45.3577 71.3404 37.4784 72.0249 29.9397 68.9112C21.2813 65.335 12.489 60.0488 9.66449 50.3628C6.59624 39.841 9.4448 28.31 15.5381 19.5244C21.8031 10.4914 31.2397 4.17892 41.5683 4.36255Z" fill="white"/>
</g>
<defs>
<filter id="filter0_d_1630_6531" x="0.58626" y="0.441796" width="82.4279" height="82.2401" filterUnits="userSpaceOnUse" color-interpolation-filters="sRGB">
<feFlood flood-opacity="0" result="BackgroundImageFix"/>
<feColorMatrix in="SourceAlpha" type="matrix" values="0 0 0 0 0 0 0 0 0 0 0 0 0 0 0 0 0 0 127 0" result="hardAlpha"/>
<feOffset dy="3.91685"/>
<feGaussianBlur stdDeviation="3.91685"/>
<feComposite in2="hardAlpha" operator="out"/>
<feColorMatrix type="matrix" values="0 0 0 0 0 0 0 0 0 0 0 0 0 0 0 0 0 0 0.1 0"/>
<feBlend mode="normal" in2="BackgroundImageFix" result="effect1_dropShadow_1630_6531"/>
<feBlend mode="normal" in="SourceGraphic" in2="effect1_dropShadow_1630_6531" result="shape"/>
</filter>
</defs>
</svg>
