<svg width="14" height="14" viewBox="0 0 14 14" fill="none" xmlns="http://www.w3.org/2000/svg">
<path d="M11.9601 7.66674C11.8134 7.66674 11.6601 7.62008 11.5134 7.58674C11.2164 7.52129 10.9245 7.4344 10.6401 7.32674C10.3308 7.21423 9.99083 7.22007 9.68561 7.34315C9.38038 7.46622 9.13146 7.69783 8.98673 7.99341L8.84007 8.29341C8.19074 7.93219 7.59406 7.48356 7.06673 6.96007C6.54325 6.43275 6.09462 5.83607 5.7334 5.18674L6.0134 5.00007C6.30898 4.85535 6.54059 4.60643 6.66366 4.3012C6.78674 3.99598 6.79258 3.65602 6.68007 3.34674C6.57422 3.06169 6.48736 2.76994 6.42007 2.47341C6.38673 2.32674 6.36007 2.17341 6.34007 2.02008C6.25911 1.55049 6.01315 1.12524 5.64648 0.820901C5.27981 0.516566 4.81653 0.353147 4.34007 0.360075H2.34007C2.05275 0.357377 1.76823 0.416617 1.50587 0.533762C1.24351 0.650907 1.00947 0.823206 0.819687 1.03893C0.629901 1.25465 0.488824 1.50874 0.406059 1.78388C0.323295 2.05903 0.300787 2.34878 0.340067 2.63341C0.695226 5.42633 1.97075 8.02133 3.96517 10.0085C5.95958 11.9957 8.55921 13.2617 11.3534 13.6067H11.6067C12.0983 13.6075 12.573 13.4271 12.9401 13.1001C13.151 12.9114 13.3195 12.6802 13.4344 12.4216C13.5493 12.163 13.608 11.883 13.6067 11.6001V9.60007C13.5986 9.137 13.4299 8.69111 13.1296 8.33852C12.8293 7.98593 12.4159 7.74849 11.9601 7.66674ZM12.2934 11.6667C12.2933 11.7614 12.273 11.8549 12.2339 11.9412C12.1948 12.0274 12.1378 12.1043 12.0667 12.1667C11.9925 12.2314 11.9054 12.2797 11.8112 12.3084C11.717 12.3371 11.6178 12.3456 11.5201 12.3334C9.02333 12.0133 6.70423 10.8711 4.92854 9.08694C3.15286 7.30281 2.02167 4.9783 1.7134 2.48007C1.70279 2.38242 1.71209 2.28363 1.74074 2.18967C1.76938 2.09571 1.81678 2.00853 1.88007 1.93341C1.94254 1.8623 2.01944 1.8053 2.10565 1.76622C2.19186 1.72714 2.28541 1.70686 2.38007 1.70674H4.38007C4.5351 1.70329 4.68648 1.75399 4.80816 1.85012C4.92984 1.94625 5.01421 2.08179 5.04673 2.23341C5.0734 2.41563 5.10673 2.59563 5.14673 2.77341C5.22375 3.12484 5.32624 3.47019 5.4534 3.80674L4.52007 4.24007C4.44027 4.27669 4.36848 4.32871 4.30884 4.39314C4.2492 4.45757 4.20287 4.53315 4.17251 4.61554C4.14216 4.69793 4.12838 4.7855 4.13197 4.87322C4.13555 4.96095 4.15643 5.0471 4.1934 5.12674C5.15287 7.18191 6.8049 8.83394 8.86007 9.79341C9.02238 9.86009 9.20443 9.86009 9.36673 9.79341C9.44988 9.76367 9.52628 9.71771 9.59151 9.6582C9.65675 9.59869 9.70951 9.52681 9.74673 9.44674L10.1601 8.51341C10.5047 8.63666 10.8565 8.73907 11.2134 8.82008C11.3912 8.86007 11.5712 8.89341 11.7534 8.92008C11.905 8.9526 12.0406 9.03697 12.1367 9.15865C12.2328 9.28033 12.2835 9.43171 12.2801 9.58674L12.2934 11.6667Z" fill="#808080"/>
</svg>
