<svg width="22" height="22" viewBox="0 0 22 22" fill="none" xmlns="http://www.w3.org/2000/svg">
<path fill-rule="evenodd" clip-rule="evenodd" d="M7.39053 1.12017C6.94577 1.21413 6.51172 1.44747 6.16639 1.77818C5.78321 2.14515 5.65557 2.36133 5.35053 3.16032C5.21375 3.51846 5.03903 3.97592 4.96223 4.17682C4.81756 4.55521 4.66585 4.77065 4.47422 4.86981C4.41296 4.90147 3.93316 5.09127 3.40796 5.29154C2.88277 5.49186 2.35366 5.71566 2.23224 5.78895C2.11081 5.86219 1.88242 6.057 1.7247 6.22182C1.38629 6.57547 1.15906 7.00623 1.06401 7.47416C0.91895 8.18837 0.992477 8.52302 1.57745 9.81117C2.18231 11.1432 2.1825 10.9812 1.57428 12.3166C1.09995 13.3579 1.00283 13.667 1.00283 14.1352C1.00283 14.4763 1.11281 14.9251 1.2842 15.2832C1.4143 15.555 1.50443 15.6761 1.77975 15.9491C2.19114 16.3571 2.32846 16.4311 3.46536 16.8574C4.46203 17.2311 4.53681 17.2657 4.68292 17.4196C4.81302 17.5566 4.86709 17.6789 5.24196 18.6836C5.6337 19.7334 5.71523 19.8828 6.11928 20.2906C6.39194 20.5657 6.51356 20.6563 6.78497 20.7865C7.37889 21.0715 8.01926 21.1347 8.63345 20.969C8.75839 20.9353 9.28582 20.7118 9.80551 20.4723C11.0419 19.9026 10.9734 19.9061 11.9615 20.3616C13.0443 20.8608 13.2467 20.9425 13.5612 21.0075C14.1282 21.1247 14.666 21.0532 15.2238 20.7867C15.4966 20.6563 15.6161 20.5672 15.8935 20.2874C16.2962 19.8813 16.39 19.7017 16.8499 18.4552C17.18 17.5605 17.2855 17.3816 17.568 17.2374C17.6494 17.1958 18.1003 17.0189 18.5699 16.8442C19.0394 16.6695 19.5291 16.4711 19.658 16.4032C19.9658 16.2412 20.4417 15.7839 20.6263 15.4727C20.9261 14.9673 21.0633 14.277 20.9702 13.7422C20.9047 13.3658 20.8554 13.2364 20.3906 12.2215C19.8446 11.0293 19.8471 11.0876 20.3 10.1043C20.7989 9.02105 20.8806 8.81855 20.9456 8.50391C21.0628 7.93627 20.9912 7.39794 20.7245 6.84066C20.5944 6.56886 20.5043 6.44773 20.229 6.17468C19.8201 5.76921 19.6855 5.69655 18.5641 5.27618C18.0914 5.09897 17.6399 4.92144 17.5608 4.88165C17.2845 4.74278 17.1872 4.57014 16.7879 3.51037C16.5812 2.962 16.3513 2.41246 16.277 2.28918C16.0641 1.93596 15.6017 1.51962 15.2172 1.33487C14.6677 1.07077 14.1269 0.999395 13.5612 1.1163C13.2467 1.1813 13.0443 1.26303 11.9615 1.76219C11.0022 2.20448 11.0066 2.20448 10.0472 1.76219C8.9644 1.26303 8.76199 1.1813 8.44749 1.1163C8.09067 1.04255 7.75183 1.0438 7.39053 1.12017ZM9.10759 3.16329C10.3091 3.70881 10.3448 3.7205 10.8787 3.74371C11.4874 3.77014 11.6848 3.71409 12.8559 3.1826C13.7517 2.77603 13.8569 2.73738 14.0687 2.73706C14.2245 2.73679 14.3557 2.76341 14.469 2.81828C14.777 2.96743 14.8641 3.11741 15.2648 4.18765C15.4679 4.73 15.6955 5.27935 15.7707 5.40841C15.9396 5.69835 16.3508 6.11418 16.6371 6.28467C16.7554 6.35506 17.2988 6.58094 17.8449 6.78661C18.3908 6.99231 18.8954 7.20435 18.9661 7.25782C19.1897 7.42702 19.295 7.62906 19.3165 7.92986L19.3357 8.19818L18.8812 9.1994C18.6313 9.75008 18.4008 10.3109 18.369 10.4456C18.2958 10.7564 18.2948 11.363 18.3669 11.669C18.3975 11.7987 18.6256 12.3527 18.8738 12.9002C19.2864 13.8101 19.3252 13.9155 19.3256 14.1275C19.3258 14.2835 19.2992 14.4148 19.2444 14.5281C19.0953 14.8362 18.9454 14.9234 17.8756 15.3242C17.3335 15.5274 16.7844 15.7551 16.6554 15.8304C16.3549 16.0055 15.9458 16.4148 15.7707 16.7154C15.6955 16.8445 15.467 17.3973 15.2629 17.9439C14.9203 18.8615 14.8784 18.9512 14.716 19.1146C14.5221 19.3096 14.3276 19.3871 14.0319 19.3871C13.8774 19.3871 13.6754 19.3099 12.8553 18.9374C12.3108 18.69 11.7551 18.4616 11.6204 18.4298C11.3098 18.3566 10.7034 18.3555 10.3975 18.4277C10.2679 18.4583 9.71409 18.6865 9.16685 18.9348C8.25742 19.3476 8.15197 19.3864 7.94006 19.3868C7.78418 19.387 7.65299 19.3604 7.53969 19.3055C7.23175 19.1564 7.14459 19.0064 6.74391 17.9362C6.54087 17.3938 6.31321 16.8445 6.23801 16.7154C6.06275 16.4146 5.65397 16.0058 5.3515 15.8288C5.22148 15.7527 4.673 15.5255 4.13265 15.3239C3.06522 14.9255 2.91414 14.8377 2.76435 14.5281C2.71024 14.4163 2.68277 14.2828 2.68277 14.1318C2.68277 13.9252 2.7238 13.8135 3.12722 12.9227C3.37167 12.383 3.60022 11.8259 3.63511 11.6848C3.71352 11.3677 3.71676 10.7727 3.64183 10.4548C3.61124 10.3251 3.38312 9.77107 3.13488 9.22359C2.72231 8.31376 2.68348 8.20827 2.68317 7.99627C2.68289 7.84032 2.7095 7.70907 2.76435 7.59572C2.91414 7.28616 3.06522 7.19829 4.13265 6.79993C4.673 6.59829 5.2207 6.37109 5.34975 6.29499C5.64999 6.11797 6.06271 5.70522 6.23801 5.40665C6.31321 5.27853 6.54087 4.73 6.74391 4.18765C7.14358 3.12014 7.22988 2.97107 7.53625 2.81934C7.64959 2.76321 7.77762 2.73671 7.93553 2.73671C8.14787 2.73667 8.24929 2.77361 9.10759 3.16329ZM8.21937 6.91907C7.35228 7.07107 6.72285 7.94249 6.86088 8.79987C7.00699 9.70759 7.86287 10.3461 8.74331 10.2043C9.84571 10.0266 10.4697 8.87421 10.0089 7.86705C9.69776 7.18723 8.94983 6.79102 8.21937 6.91907ZM13.2609 6.93329C13.1806 6.96316 13.0702 7.01674 13.0158 7.05247C12.9146 7.11876 7.93655 13.7291 7.77402 14.0129C7.61658 14.2878 7.67053 14.728 7.89053 14.964C8.03508 15.119 8.26972 15.2169 8.50398 15.2199C8.94295 15.2256 8.79492 15.3962 11.6381 11.6091C13.0503 9.72811 14.2326 8.12279 14.2654 8.04176C14.3817 7.75495 14.3182 7.37434 14.1182 7.15983C13.9126 6.93935 13.5224 6.83625 13.2609 6.93329ZM13.2201 11.922C12.353 12.074 11.7236 12.9454 11.8616 13.8028C12.0078 14.7106 12.8636 15.3491 13.7441 15.2072C14.8465 15.0296 15.4705 13.8772 15.0096 12.87C14.6985 12.1902 13.9506 11.794 13.2201 11.922Z" fill="#808080" stroke="#808080" stroke-width="0.3"/>
</svg>
