<svg width="18" height="21" viewBox="0 0 18 21" fill="none" xmlns="http://www.w3.org/2000/svg">
<path d="M15 5.06192H14.65C14.8782 4.59469 14.9979 4.08191 15 3.56192C15.003 2.86525 14.7975 2.18361 14.4098 1.60475C14.0221 1.02589 13.4701 0.576304 12.8247 0.313859C12.1794 0.0514137 11.4703 -0.0118773 10.7886 0.132133C10.107 0.276143 9.48405 0.620863 9 1.12192C8.51595 0.620863 7.89302 0.276143 7.21138 0.132133C6.52975 -0.0118773 5.82061 0.0514137 5.17525 0.313859C4.5299 0.576304 3.97786 1.02589 3.59019 1.60475C3.20252 2.18361 2.99697 2.86525 3 3.56192C3.00213 4.08191 3.12178 4.59469 3.35 5.06192H3C2.20435 5.06192 1.44129 5.37799 0.87868 5.9406C0.316071 6.50321 0 7.26627 0 8.06192V10.0619C0 10.3271 0.105357 10.5815 0.292893 10.769C0.48043 10.9566 0.734784 11.0619 1 11.0619H2V17.0619C2 17.8576 2.31607 18.6206 2.87868 19.1832C3.44129 19.7459 4.20435 20.0619 5 20.0619H13C13.7956 20.0619 14.5587 19.7459 15.1213 19.1832C15.6839 18.6206 16 17.8576 16 17.0619V11.0619H17C17.2652 11.0619 17.5196 10.9566 17.7071 10.769C17.8946 10.5815 18 10.3271 18 10.0619V8.06192C18 7.26627 17.6839 6.50321 17.1213 5.9406C16.5587 5.37799 15.7956 5.06192 15 5.06192ZM8 18.0619H5C4.73478 18.0619 4.48043 17.9566 4.29289 17.769C4.10536 17.5815 4 17.3271 4 17.0619V11.0619H8V18.0619ZM8 9.06192H2V8.06192C2 7.7967 2.10536 7.54235 2.29289 7.35481C2.48043 7.16728 2.73478 7.06192 3 7.06192H8V9.06192ZM8 5.06192H6.5C6.20333 5.06192 5.91332 4.97395 5.66665 4.80912C5.41997 4.6443 5.22771 4.41004 5.11418 4.13595C5.00065 3.86186 4.97094 3.56026 5.02882 3.26928C5.0867 2.97831 5.22956 2.71104 5.43934 2.50126C5.64912 2.29148 5.91639 2.14862 6.20736 2.09074C6.49834 2.03286 6.79994 2.06257 7.07403 2.1761C7.34811 2.28963 7.58238 2.48189 7.7472 2.72856C7.91203 2.97524 8 3.26525 8 3.56192V5.06192ZM10 3.56192C10 3.26525 10.088 2.97524 10.2528 2.72856C10.4176 2.48189 10.6519 2.28963 10.926 2.1761C11.2001 2.06257 11.5017 2.03286 11.7926 2.09074C12.0836 2.14862 12.3509 2.29148 12.5607 2.50126C12.7704 2.71104 12.9133 2.97831 12.9712 3.26928C13.0291 3.56026 12.9994 3.86186 12.8858 4.13595C12.7723 4.41004 12.58 4.6443 12.3334 4.80912C12.0867 4.97395 11.7967 5.06192 11.5 5.06192H10V3.56192ZM14 17.0619C14 17.3271 13.8946 17.5815 13.7071 17.769C13.5196 17.9566 13.2652 18.0619 13 18.0619H10V11.0619H14V17.0619ZM16 9.06192H10V7.06192H15C15.2652 7.06192 15.5196 7.16728 15.7071 7.35481C15.8946 7.54235 16 7.7967 16 8.06192V9.06192Z" fill="#808080"/>
</svg>
