<svg width="12" height="18" viewBox="0 0 12 18" fill="none" xmlns="http://www.w3.org/2000/svg">
<path d="M10.7168 7.81674L3.65015 0.750077C3.49521 0.593863 3.31088 0.469872 3.10778 0.385258C2.90468 0.300643 2.68684 0.25708 2.46682 0.25708C2.2468 0.25708 2.02895 0.300643 1.82585 0.385258C1.62276 0.469872 1.43842 0.593863 1.28348 0.750077C0.973064 1.06235 0.798828 1.48477 0.798828 1.92508C0.798828 2.36539 0.973064 2.78781 1.28348 3.10008L7.18348 9.00008L1.28348 14.9001C0.973064 15.2123 0.798828 15.6348 0.798828 16.0751C0.798828 16.5154 0.973064 16.9378 1.28348 17.2501C1.43922 17.4045 1.62391 17.5268 1.82697 17.6097C2.03003 17.6926 2.24747 17.7347 2.46682 17.7334C2.68616 17.7347 2.9036 17.6926 3.10666 17.6097C3.30972 17.5268 3.49442 17.4045 3.65015 17.2501L10.7168 10.1834C10.873 10.0285 10.997 9.84414 11.0816 9.64104C11.1662 9.43794 11.2098 9.2201 11.2098 9.00008C11.2098 8.78006 11.1662 8.56222 11.0816 8.35912C10.997 8.15602 10.873 7.97168 10.7168 7.81674Z" fill="white"/>
</svg>
