<svg width="25" height="25" viewBox="0 0 25 25" fill="none" xmlns="http://www.w3.org/2000/svg">
<path fill-rule="evenodd" clip-rule="evenodd" d="M11.3132 0.752267C9.05467 0.973395 6.96721 1.80546 5.13696 3.21413C4.24567 3.9001 3.0882 5.18929 2.41931 6.24093C2.13044 6.69512 1.5681 7.84603 1.36666 8.39528C1.14143 9.00947 0.901367 9.94803 0.783236 10.6763C0.638661 11.5677 0.638661 13.2601 0.783236 14.1514C0.987654 15.4115 1.31103 16.4302 1.86453 17.558C2.46927 18.7901 3.09808 19.6634 4.10503 20.6698C5.11203 21.6762 5.98588 22.3047 7.21866 22.9091C8.34708 23.4622 9.36633 23.7854 10.6272 23.9897C11.519 24.1342 13.2124 24.1342 14.1043 23.9897C15.3651 23.7854 16.3844 23.4622 17.5128 22.9091C18.7456 22.3047 19.6194 21.6762 20.6264 20.6698C21.6333 19.6634 22.2622 18.7901 22.8669 17.558C23.2686 16.7396 23.4706 16.2032 23.687 15.3808C23.9752 14.2855 24.0483 13.685 24.0483 12.4139C24.0483 11.1427 23.9752 10.5423 23.687 9.44697C23.4706 8.62451 23.2686 8.08814 22.8669 7.26975C22.2622 6.03768 21.6333 5.16432 20.6264 4.1579C19.6194 3.15153 18.7456 2.52308 17.5128 1.91868C16.3855 1.36599 15.346 1.03627 14.1272 0.844632C13.4546 0.738915 11.953 0.689623 11.3132 0.752267ZM14.15 2.02627C15.8802 2.35202 17.3541 2.99272 18.725 4.01501C19.2837 4.43166 20.3525 5.49985 20.7694 6.05825C21.8108 7.45315 22.4565 8.95729 22.7813 10.7449C22.901 11.404 22.901 13.4238 22.7813 14.0828C22.4565 15.8704 21.8108 17.3746 20.7694 18.7695C20.3525 19.3279 19.2837 20.3961 18.725 20.8127C17.3293 21.8535 15.8243 22.4989 14.0356 22.8235C13.3762 22.9432 11.3552 22.9432 10.6958 22.8235C8.90717 22.4989 7.40217 21.8535 6.00647 20.8127C5.44775 20.3961 4.37895 19.3279 3.96206 18.7695C2.92066 17.3746 2.27497 15.8704 1.95018 14.0828C1.8304 13.4238 1.8304 11.404 1.95018 10.7449C2.14435 9.67605 2.42339 8.79218 2.84512 7.90991C3.4 6.74917 3.99015 5.91989 4.92906 4.98146C5.86802 4.04308 6.69778 3.45327 7.85918 2.89871C8.92913 2.38787 9.84947 2.12659 11.2906 1.92458C11.366 1.91397 11.9322 1.91219 12.5487 1.92055C13.4232 1.93244 13.7753 1.95572 14.15 2.02627ZM11.3569 5.80868C9.48304 6.14792 7.97585 7.57314 7.97434 9.00732C7.97393 9.40947 8.0448 9.60678 8.27085 9.83271C8.51828 10.08 8.86755 10.1962 9.25703 10.1609C9.80669 10.1111 10.0514 9.88945 10.4743 9.05821C10.9535 8.11649 11.2978 7.85824 12.1424 7.80734C12.9746 7.75718 13.6214 8.07168 13.8911 8.65756C13.9691 8.82702 13.989 8.95821 13.9894 9.30453C13.9899 9.69681 13.9766 9.76513 13.853 10.009C13.6786 10.3529 13.3147 10.7242 12.5945 11.2931C11.9288 11.8189 11.5049 12.2136 11.286 12.5116C10.9462 12.9741 10.8002 13.6753 10.9421 14.1633C11.0225 14.4402 11.301 14.758 11.5529 14.8605C11.8371 14.9761 12.3551 14.9642 12.6203 14.8359C12.8857 14.7075 13.0049 14.5459 13.2494 13.9831C13.3593 13.73 13.4966 13.4564 13.5546 13.3751C13.6125 13.2937 14.0224 12.9579 14.4654 12.6287C16.2368 11.3128 16.7585 10.5564 16.7576 9.30545C16.7562 7.42389 15.3989 6.10915 13.1435 5.80461C12.5495 5.72441 11.8132 5.72606 11.3569 5.80868ZM11.8527 16.1654C11.1207 16.2863 10.5969 16.9446 10.6355 17.6952C10.6932 18.8152 11.9247 19.4468 12.8834 18.8482C13.3395 18.5634 13.5777 18.087 13.5473 17.5202C13.5005 16.6454 12.7208 16.0221 11.8527 16.1654Z" fill="#E91835" stroke="#E91835" stroke-width="0.701205"/>
</svg>
