<svg width="89" height="78" viewBox="0 0 89 78" fill="none" xmlns="http://www.w3.org/2000/svg">
<g filter="url(#filter0_d_1812_6394)">
<path fill-rule="evenodd" clip-rule="evenodd" d="M44.2603 7.00328C54.7533 7.15512 63.6518 13.1055 70.0946 20.5203C76.4241 27.8046 81.1171 37.0564 78.0229 45.8591C75.1172 54.1254 65.0246 57.6615 55.9651 60.7171C48.1768 63.344 40.0332 63.9198 32.2416 61.3006C23.2927 58.2924 14.2055 53.8457 11.2863 45.698C8.11511 36.8472 11.0592 27.1475 17.357 19.7572C23.832 12.1588 33.5852 6.84882 44.2603 7.00328Z" fill="#E91835"/>
</g>
<path d="M47.8211 46L43.7111 40.03L40.2011 46H33.5111L40.3811 35.17L33.2711 24.85H40.2011L44.1911 30.67L47.6111 24.85H54.3011L47.5211 35.5L54.7511 46H47.8211Z" fill="white"/>
<defs>
<filter id="filter0_d_1812_6394" x="0" y="2" width="89" height="76" filterUnits="userSpaceOnUse" color-interpolation-filters="sRGB">
<feFlood flood-opacity="0" result="BackgroundImageFix"/>
<feColorMatrix in="SourceAlpha" type="matrix" values="0 0 0 0 0 0 0 0 0 0 0 0 0 0 0 0 0 0 127 0" result="hardAlpha"/>
<feOffset dy="5"/>
<feGaussianBlur stdDeviation="5"/>
<feComposite in2="hardAlpha" operator="out"/>
<feColorMatrix type="matrix" values="0 0 0 0 0.913725 0 0 0 0 0.0941176 0 0 0 0 0.207843 0 0 0 0.15 0"/>
<feBlend mode="normal" in2="BackgroundImageFix" result="effect1_dropShadow_1812_6394"/>
<feBlend mode="normal" in="SourceGraphic" in2="effect1_dropShadow_1812_6394" result="shape"/>
</filter>
</defs>
</svg>
